<?xml version="1.0" encoding="utf-8"?>
<!-- Generator: Adobe Illustrator 17.0.0, SVG Export Plug-In . SVG Version: 6.00 Build 0)  -->
<!DOCTYPE svg PUBLIC "-//W3C//DTD SVG 1.1//EN" "http://www.w3.org/Graphics/SVG/1.1/DTD/svg11.dtd">
<svg version="1.1" id="Слой_1" xmlns="http://www.w3.org/2000/svg" xmlns:xlink="http://www.w3.org/1999/xlink" x="0px" y="0px"
	 width="100px" height="56.505px" viewBox="0 0 100 56.505" enable-background="new 0 0 100 56.505" xml:space="preserve">
	<path fill="#555" d="M98.785,16.596h-6.717V1.581c0-0.79-0.79-1.581-1.581-1.581H1.581C0.79,0,0,0.79,0,1.581v53.344
		c0,0.79,0.79,1.581,1.581,1.581h88.907c0.79,0,1.581-0.79,1.581-1.581v-14.62h6.717c0.395,0,1.185-0.79,1.185-1.581V17.782
		C99.97,16.991,99.18,16.596,98.785,16.596z M85.322,50.072H6.924V6.433h78.398V50.072z"/>
	<rect fill="#555" x="13.062" y="12.088" width="44.804" height="32.328"/>
</svg>
