<?xml version="1.0" encoding="utf-8"?>
<!DOCTYPE svg PUBLIC "-//W3C//DTD SVG 1.1//EN" "http://www.w3.org/Graphics/SVG/1.1/DTD/svg11.dtd">
<svg version="1.1" id="Слой_1" xmlns="http://www.w3.org/2000/svg" xmlns:xlink="http://www.w3.org/1999/xlink" x="0px" y="0px"
	 width="100px" height="100px" viewBox="0 0 100 100" enable-background="new 0 0 100 100" xml:space="preserve">
<path fill="#555" d="M24.942,71.594c0.017-0.262,0.079-0.513,0.079-0.779c0-5.42-3.488-10-8.326-11.723V40.903
	c4.838-1.724,8.326-6.303,8.326-11.719c0-0.271-0.062-0.52-0.079-0.783L76.003,17.46c1.37,3.172,4.03,5.625,7.303,6.79v51.495
	c-3.272,1.165-5.933,3.617-7.303,6.789L24.942,71.594z M8.368,59.093c-4.833,1.723-8.326,6.302-8.326,11.723
	c0,6.886,5.604,12.49,12.49,12.49c3.564,0,6.761-1.52,9.038-3.917l53.967,11.565c1.519,5.184,6.261,9.005,11.931,9.005
	c6.89,0,12.49-5.604,12.49-12.489c0-5.42-3.489-10.001-8.326-11.723V24.251c4.837-1.724,8.326-6.303,8.326-11.719
	c0-6.89-5.6-12.489-12.49-12.489c-5.67,0-10.412,3.817-11.931,9L21.57,20.608c-2.278-2.398-5.475-3.913-9.038-3.913
	c-6.886,0-12.49,5.6-12.49,12.489c0,5.416,3.493,9.996,8.326,11.719V59.093L8.368,59.093z"/>
</svg>
