<?xml version="1.0" encoding="utf-8"?>
<!DOCTYPE svg PUBLIC "-//W3C//DTD SVG 1.1//EN" "http://www.w3.org/Graphics/SVG/1.1/DTD/svg11.dtd">
<svg version="1.1" id="Слой_1" xmlns="http://www.w3.org/2000/svg" xmlns:xlink="http://www.w3.org/1999/xlink" x="0px" y="0px"
	 width="100px" height="100px" viewBox="0 0 100 100" enable-background="new 0 0 100 100" xml:space="preserve">
	<path fill="none" d="M50,8.322C27.019,8.322,8.322,27.019,8.322,50S27.019,91.678,50,91.678S91.678,72.981,91.678,50
		S72.981,8.322,50,8.322z M50,83.185c-18.295,0-33.185-14.889-33.185-33.185c0-18.297,14.889-33.185,33.185-33.185
		c18.296,0,33.185,14.889,33.185,33.185C83.185,68.296,68.296,83.185,50,83.185z"/>
	<path fill="none" d="M50,35.812c-7.823,0-14.188,6.366-14.188,14.188c0,7.823,6.366,14.188,14.188,14.188S64.188,57.823,64.188,50
		C64.188,42.177,57.823,35.812,50,35.812z M50,56.242c-3.447,0-6.241-2.795-6.241-6.242s2.794-6.241,6.241-6.241
		s6.241,2.794,6.241,6.241S53.447,56.242,50,56.242z"/>
	<path fill="#555" d="M81.259-0.014H18.741c-10.341,0-18.755,8.415-18.755,18.755v62.516c0,10.342,8.415,18.756,18.755,18.756h62.518
		c10.34,0,18.755-8.414,18.755-18.756V18.741C100.014,8.401,91.599-0.014,81.259-0.014z M13.084,8.858
		c2.724,0,4.933,2.209,4.933,4.933c0,2.724-2.208,4.933-4.933,4.933s-4.933-2.209-4.933-4.933
		C8.152,11.067,10.36,8.858,13.084,8.858z M12.996,91.141c-2.724,0-4.933-2.209-4.933-4.933c0-2.724,2.208-4.933,4.933-4.933
		s4.933,2.209,4.933,4.933C17.928,88.932,15.72,91.141,12.996,91.141z M50,91.678C27.019,91.678,8.322,72.981,8.322,50
		S27.019,8.322,50,8.322S91.678,27.019,91.678,50S72.981,91.678,50,91.678z M86.916,91.141c-2.724,0-4.933-2.209-4.933-4.933
		c0-2.724,2.208-4.933,4.933-4.933c2.724,0,4.933,2.209,4.933,4.933C91.848,88.932,89.64,91.141,86.916,91.141z M87.004,18.724
		c-2.724,0-4.933-2.209-4.933-4.933c0-2.724,2.208-4.933,4.933-4.933c2.724,0,4.933,2.209,4.933,4.933
		C91.937,16.515,89.728,18.724,87.004,18.724z"/>
	<circle fill="#555" cx="50" cy="50" r="6.241"/>
	<path fill="#555" d="M50,16.815c-18.295,0-33.185,14.889-33.185,33.185c0,18.296,14.889,33.185,33.185,33.185
		c18.296,0,33.185-14.889,33.185-33.185C83.185,31.703,68.296,16.815,50,16.815z M50,64.188c-7.823,0-14.188-6.364-14.188-14.188
		c0-7.823,6.366-14.188,14.188-14.188S64.188,42.177,64.188,50C64.188,57.823,57.823,64.188,50,64.188z"/>
</svg>
