<?xml version="1.0" encoding="utf-8"?>
<!DOCTYPE svg PUBLIC "-//W3C//DTD SVG 1.1//EN" "http://www.w3.org/Graphics/SVG/1.1/DTD/svg11.dtd">
<svg version="1.1" id="Слой_1" xmlns="http://www.w3.org/2000/svg" xmlns:xlink="http://www.w3.org/1999/xlink" x="0px" y="0px"
	 width="100px" height="100px" viewBox="0 0 100 100" enable-background="new 0 0 100 100" xml:space="preserve">
<path fill="#555" d="M66.491,55.064c-15.518,5.814-15.567-8.398-15.567-8.398s-0.628-13.815,2.848-17.795
	c3.478-3.98,10.816-11.072,13.324-11.309c9.396,0.757,14.996-1.604,14.996-1.604c5.723-2.446,6.504-7.095,4.337-8.178
	c-0.786-0.392-0.786-0.392-7.422-1.854l-9.302-2.049c-2.642-0.582-6.628-0.497-17.812,4.016
	c-5.493,2.216-10.316,4.529-10.518,4.627c-1.06,0.51-1.927,1.31-2.658,2.225C23.028,34.378,0.101,82.957,0.101,82.957
	l26.594,13.419c10.033-15.174,24.792-16.002,36.146-21.302c4.016-1.875,9.18-5.935,19.126-11.715
	c1.339-0.777,5.335-3.944,4.828-5.355C86.341,56.744,80.005,50,66.491,55.064z"/>
<path fill="#555" d="M94.317,19.304H74.27l0,0c-3.083,0-5.582,2.472-5.582,5.522v21.171l0,0c0,3.05,2.499,5.522,5.582,5.522
	h20.047l0,0c3.083,0,5.582-2.472,5.582-5.522V24.826l0,0C99.899,21.776,97.4,19.304,94.317,19.304z"/>
</svg>