<?xml version="1.0" encoding="utf-8"?>
<!DOCTYPE svg PUBLIC "-//W3C//DTD SVG 1.1//EN" "http://www.w3.org/Graphics/SVG/1.1/DTD/svg11.dtd">
<svg version="1.1" xmlns="http://www.w3.org/2000/svg" xmlns:xlink="http://www.w3.org/1999/xlink" x="0px" y="0px"
	 width="100px" height="100px" viewBox="0 0 100 100" enable-background="new 0 0 100 100" xml:space="preserve">
	<path fill="#555" d="M37.499,18.845l20.882,20.877c0,0,0-33.81,0-37.602c0-3.791-2.757-1.4-2.757-1.4L37.499,18.845z"/>
	<path fill="#555" d="M92.628,73.959c10.905-19.438,8.144-44.53-8.369-61.049l-7.216,7.216c12.492,12.492,15.135,31.124,8.017,46.26
		L92.628,73.959z"/>
	<path fill="#555" d="M63.857,33.307c4.95,4.95,6.965,11.666,6.251,18.136l8.517,8.513c1.25-3.475,1.934-7.165,1.934-10.967
		c0-8.65-3.369-16.784-9.487-22.903L63.857,33.307z"/>
	<path fill="#555" d="M2.246,9.572l19.009,19.009c0,0-11.167,0-13.056,0c-5.191,0-7.405,2.356-7.405,7.87c0,3.894,0,15.78,0,24.928
		c0,4.362,2.702,8.027,7.346,8.027c2.755,0,19.622,0,19.622,0l26.678,26.678c0,0,3.94,4.154,3.94-1.712c0-5.867,0-28.666,0-28.666
		l34.318,34.318l6.506-6.481L8.753,3.066L2.246,9.572z"/>
</svg>
