<?xml version="1.0" encoding="utf-8"?>
<!DOCTYPE svg PUBLIC "-//W3C//DTD SVG 1.1//EN" "http://www.w3.org/Graphics/SVG/1.1/DTD/svg11.dtd">
<svg version="1.1" id="Слой_1" xmlns="http://www.w3.org/2000/svg" xmlns:xlink="http://www.w3.org/1999/xlink" x="0px" y="0px"
width="100px" height="100px" viewBox="0 0 100 100" enable-background="new 0 0 100 100" xml:space="preserve">
<path fill="#555" d="M93.875,70.34c-4.173,8.552-11.26,15.567-19.879,19.61c-8.669,4.067-18.685,5.007-27.967,2.664
c-17.647-4.455-30.657-20.383-31.536-38.553c-0.211-4.368-0.189-8.532,0.906-12.787c0.927-3.6,2.374-7.066,4.226-10.287
c4.034-7.018,10.064-12.928,17.412-16.4c8.145-3.848,17.734-4.559,26.384-2.079c4.558,1.307,8.844,3.487,12.654,6.302
c0.854,0.631,1.685,1.294,2.49,1.986c0.215,0.185,0.429,0.373,0.641,0.562c0.336,0.3,0.393,0.023,0.683-0.241
c0.495-0.45,0.99-0.899,1.486-1.349c2.049-1.859,4.1-3.717,6.161-5.563c-7.538-6.988-17.026-11.86-27.235-13.35
C50.58-0.563,40.51,1.011,31.719,5.406C16.167,13.182,4.836,29.438,3.535,46.859c-1.249,16.717,7.543,33.769,20.932,43.529
c15.394,11.222,36.677,12.267,53.098,2.594c5.055-2.978,9.553-6.896,13.151-11.533c1.825-2.353,3.417-4.887,4.741-7.554
c0.303-0.611,0.593-1.229,0.868-1.854c0.262-0.595,0.28-0.519-0.256-0.751C95.337,70.973,94.606,70.657,93.875,70.34z"/>
<path fill="#555" d="M75.01,25.519c-1.496,1.235,1.362,1.489,2.023,1.586c2.289,0.336,4.579,0.672,6.868,1.008
c3.856,0.566,7.711,1.132,11.567,1.698c-0.68-4.947-1.359-9.894-2.039-14.841c-0.116-0.847-0.097-3.722-0.946-4.296
c-0.699-0.473-1.606,0.572-2.061,0.97c-1.131,0.99-2.251,1.994-3.369,2.998c-2.15,1.93-4.29,3.87-6.429,5.812
C78.762,22.143,76.95,23.919,75.01,25.519C73.857,26.471,75.364,25.227,75.01,25.519z"/>
<path fill="#555" d="M55.026,58.898c2.941,0,5.849,0.876,8.287,2.525c0.328,0.222,2.162,1.847,2.284,1.725
c0.343-0.343,0.686-0.686,1.029-1.029c1.956-1.956,3.913-3.913,5.869-5.869c-9.523-9.521-25.415-9.521-34.938,0
c1.956,1.956,3.913,3.913,5.869,5.869c0.343,0.343,0.686,0.686,1.029,1.029c0.122,0.122,1.956-1.503,2.285-1.725
C49.177,59.774,52.085,58.898,55.026,58.898z"/>
<path fill="#555" d="M30.564,49.261c6.65-6.65,15.885-10.325,25.283-10.104c4.594,0.108,9.16,1.131,13.355,3.01
c2.145,0.961,4.191,2.142,6.095,3.52c0.935,0.677,1.836,1.4,2.698,2.167c0.29,0.258,1.341,1.558,1.619,1.28
c2.287-2.287,4.573-4.573,6.86-6.86c-7.847-7.846-18.545-12.475-29.625-12.922c-11.599-0.468-23.195,3.677-31.784,11.501
c-0.507,0.462-1.004,0.936-1.489,1.422C25.905,44.603,28.235,46.932,30.564,49.261z"/>
<path fill="#555" d="M55.026,68.069c3.3,0,6.056,2.756,6.056,6.056s-2.756,6.056-6.056,6.056s-6.056-2.756-6.056-6.056
S51.726,68.069,55.026,68.069z"/>
</svg>
